<?xml version="1.0" encoding="UTF-8" standalone="no"?>
<svg
   xmlns:dc="http://purl.org/dc/elements/1.1/"
   xmlns:cc="http://creativecommons.org/ns#"
   xmlns:rdf="http://www.w3.org/1999/02/22-rdf-syntax-ns#"
   xmlns:svg="http://www.w3.org/2000/svg"
   xmlns="http://www.w3.org/2000/svg"
   xmlns:sodipodi="http://sodipodi.sourceforge.net/DTD/sodipodi-0.dtd"
   xmlns:inkscape="http://www.inkscape.org/namespaces/inkscape"
   width="100"
   height="100"
   viewBox="0 0 100 100"
   version="1.1"
   id="svg8"
   sodipodi:docname="for-hire.inline.svg"
   inkscape:version="1.0.1 (c497b03c, 2020-09-10)">
  <defs
     id="defs2">
    <rect
       x="53.672619"
       y="65.76786"
       width="111.125"
       height="61.988094"
       id="rect16" />
    <filter
       style="color-interpolation-filters:sRGB"
       inkscape:label="Drop Shadow"
       id="filter1116">
      <feFlood
         flood-opacity="1"
         flood-color="rgb(0,0,0)"
         result="flood"
         id="feFlood1106" />
      <feComposite
         in="flood"
         in2="SourceGraphic"
         operator="in"
         result="composite1"
         id="feComposite1108" />
      <feGaussianBlur
         in="composite1"
         stdDeviation="97.2973"
         result="blur"
         id="feGaussianBlur1110" />
      <feOffset
         dx="-43.1138"
         dy="-37.7246"
         result="offset"
         id="feOffset1112" />
      <feComposite
         in="SourceGraphic"
         in2="offset"
         operator="over"
         result="fbSourceGraphic"
         id="feComposite1114" />
      <feColorMatrix
         result="fbSourceGraphicAlpha"
         in="fbSourceGraphic"
         values="0 0 0 -1 0 0 0 0 -1 0 0 0 0 -1 0 0 0 0 1 0"
         id="feColorMatrix1466" />
      <feFlood
         id="feFlood1468"
         flood-opacity="0.611765"
         flood-color="rgb(0,0,0)"
         result="flood"
         in="fbSourceGraphic" />
      <feComposite
         in2="fbSourceGraphic"
         id="feComposite1470"
         in="flood"
         operator="in"
         result="composite1" />
      <feGaussianBlur
         id="feGaussianBlur1472"
         in="composite1"
         stdDeviation="0"
         result="blur" />
      <feOffset
         id="feOffset1474"
         dx="0.7"
         dy="0.7"
         result="offset" />
      <feComposite
         in2="offset"
         id="feComposite1476"
         in="fbSourceGraphic"
         operator="over"
         result="composite2" />
    </filter>
    <filter
       style="color-interpolation-filters:sRGB;"
       inkscape:label="Drop Shadow"
       id="filter1904">
      <feFlood
         flood-opacity="0.611765"
         flood-color="rgb(0,0,0)"
         result="flood"
         id="feFlood1894" />
      <feComposite
         in="flood"
         in2="SourceGraphic"
         operator="in"
         result="composite1"
         id="feComposite1896" />
      <feGaussianBlur
         in="composite1"
         stdDeviation="0"
         result="blur"
         id="feGaussianBlur1898" />
      <feOffset
         dx="2.8"
         dy="2"
         result="offset"
         id="feOffset1900" />
      <feComposite
         in="SourceGraphic"
         in2="offset"
         operator="over"
         result="composite2"
         id="feComposite1902" />
    </filter>
    <filter
       style="color-interpolation-filters:sRGB;"
       inkscape:label="Drop Shadow"
       id="filter1057">
      <feFlood
         flood-opacity="0.611765"
         flood-color="rgb(0,0,0)"
         result="flood"
         id="feFlood1047" />
      <feComposite
         in="flood"
         in2="SourceGraphic"
         operator="in"
         result="composite1"
         id="feComposite1049" />
      <feGaussianBlur
         in="composite1"
         stdDeviation="0"
         result="blur"
         id="feGaussianBlur1051" />
      <feOffset
         dx="2.8"
         dy="2"
         result="offset"
         id="feOffset1053" />
      <feComposite
         in="SourceGraphic"
         in2="offset"
         operator="over"
         result="composite2"
         id="feComposite1055" />
    </filter>
  </defs>
  <sodipodi:namedview
     id="base"
     pagecolor="#ffffff"
     bordercolor="#666666"
     borderopacity="1.0"
     inkscape:pageopacity="0.0"
     inkscape:pageshadow="2"
     inkscape:zoom="3.959798"
     inkscape:cx="108.10574"
     inkscape:cy="40.157553"
     inkscape:document-units="px"
     inkscape:current-layer="text216"
     inkscape:document-rotation="0"
     showgrid="false"
     units="px"
     inkscape:pagecheckerboard="true"
     inkscape:window-width="1252"
     inkscape:window-height="847"
     inkscape:window-x="1"
     inkscape:window-y="25"
     inkscape:window-maximized="0" />
  <metadata
     id="metadata5">
    <rdf:RDF>
      <cc:Work
         rdf:about="">
        <dc:format>image/svg+xml</dc:format>
        <dc:type
           rdf:resource="http://purl.org/dc/dcmitype/StillImage" />
        <dc:title></dc:title>
      </cc:Work>
    </rdf:RDF>
  </metadata>
  <g
     inkscape:label="Layer 1"
     inkscape:groupmode="layer"
     id="layer1">
    <g
       aria-label="For
Hire"
       id="text216"
       style="font-size:40px;line-height:1.25;font-family:Bangers;-inkscape-font-specification:Bangers;text-align:center;text-anchor:middle;fill:#2563eb;fill-opacity:1;filter:url(#filter1057)">
      <path
         d="m 37.058138,30.311557 q -0.742188,0 -5.742188,-0.15625 l -1.835937,11.796875 q -3.359375,0.585937 -7.460938,1.523437 1.171875,-4.257812 2.148438,-9.882812 1.835937,-10.351563 3.085937,-18.90625 l 13.398438,-0.703125 -1.132813,4.921875 h -6.289062 l -1.25,7.148437 q 1.25,-0.03906 2.265625,-0.03906 h 1.992187 q 0.9375,0 1.484375,-0.03906 z"
         id="path1059" />
      <path
         d="m 52.370638,25.155307 q 0,-3.242188 -1.875,-3.242188 -2.382813,0 -4.296875,2.34375 -1.523438,1.875 -2.617188,5.117188 -0.859375,2.65625 -0.859375,5 0,1.5625 1.328125,2.34375 0.390625,0.273437 0.898438,0.273437 1.796875,0 3.164062,-1.210937 1.40625,-1.25 2.34375,-3.046875 0.9375,-1.796875 1.40625,-3.828125 0.507813,-2.070313 0.507813,-3.75 z m 5.546875,-2.460938 q 0,2.382813 -0.703125,5.273438 -0.664063,2.890625 -1.835938,5.3125 -1.171875,2.421875 -2.734375,4.335937 -1.523437,1.914063 -3.203125,3.242188 -3.476562,2.734375 -6.679687,2.734375 -2.695313,0 -4.257813,-1.953125 -1.71875,-2.148438 -1.71875,-6.25 0,-4.453125 2.070313,-9.609375 2.070312,-5.15625 5.429687,-8.59375 3.632813,-3.671875 7.617188,-3.671875 3.28125,0 4.804687,2.65625 1.210938,2.148437 1.210938,6.523437 z"
         id="path1061" />
      <path
         d="m 67.487825,42.811557 q -3.007812,-9.882813 -3.125,-11.289063 l -0.507812,0.15625 q -0.3125,1.796875 -0.9375,5 -0.625,3.203125 -0.976563,5.117188 l -6.484375,1.679687 q 4.0625,-19.648437 4.960938,-27.890624 4.53125,-1.40625 10.15625,-1.40625 4.21875,0 5,2.929687 0.234375,0.898437 0.234375,2.226562 0,1.328125 -0.546875,2.890625 -0.546875,1.523438 -1.484375,2.929688 -1.953125,2.851562 -4.804688,4.375 1.523438,3.28125 2.695313,6.210937 1.210937,2.890625 2.03125,4.882813 z m 0.390625,-23.085938 -1.71875,0.03906 -1.289062,6.367187 q 1.5625,-0.15625 3.945312,-1.992187 2.460938,-1.875 2.460938,-3.085938 0,-1.132812 -2.148438,-1.289062 -0.625,-0.03906 -1.25,-0.03906 z"
         id="path1063" />
      <path
         d="m 15.923579,79.625085 q 3.476563,-18.164063 5.078125,-28.90625 l 6.484375,-0.46875 q -1.5625,6.5625 -2.539062,11.796875 l 3.945312,-0.46875 q 0.546875,-2.8125 0.976563,-5.46875 0.46875,-2.695313 1.171875,-5.507813 1.5625,-0.273437 3.320312,-0.390625 1.757813,-0.15625 2.421875,-0.195312 l 0.664063,-0.07813 q -1.914063,6.25 -3.75,17.539062 -0.898438,5.078125 -1.640625,10.390625 l -6.25,0.703125 q 0.507812,-2.382812 0.898437,-4.492187 0.429688,-2.109375 0.820313,-4.179688 0.429687,-2.070312 0.703125,-3.554687 l -3.90625,0.351562 q -0.898438,4.960938 -2.226563,11.640625 z"
         id="path1065" />
      <path
         d="m 45.064204,50.562585 q -4.453125,22.65625 -5.429687,28.203125 -1.09375,0 -3.789063,0.351562 -2.695312,0.351563 -2.773437,0.390625 1.25,-4.53125 2.304687,-9.882812 2.421875,-12.226563 3.4375,-18.085938 z"
         id="path1067" />
      <path
         d="m 53.540767,78.92196 q -3.007813,-9.882813 -3.125,-11.289063 l -0.507813,0.15625 q -0.3125,1.796875 -0.9375,5 -0.625,3.203125 -0.976562,5.117188 l -6.484375,1.679687 q 4.0625,-19.648437 4.960937,-27.890625 4.53125,-1.40625 10.15625,-1.40625 4.21875,0 5,2.929688 0.234375,0.898437 0.234375,2.226562 0,1.328125 -0.546875,2.890625 -0.546875,1.523438 -1.484375,2.929688 -1.953125,2.851562 -4.804687,4.375 1.523437,3.28125 2.695312,6.210937 1.210938,2.890625 2.03125,4.882813 z m 0.390625,-23.085938 -1.71875,0.03906 -1.289063,6.367187 q 1.5625,-0.15625 3.945313,-1.992187 2.460937,-1.875 2.460937,-3.085938 0,-1.132812 -2.148437,-1.289062 -0.625,-0.03906 -1.25,-0.03906 z"
         id="path1069" />
      <path
         d="m 59.478267,79.586022 5.234375,-28.4375 12.65625,-1.09375 q -0.273438,0.898438 -0.46875,1.757813 -0.195313,0.820312 -0.390625,1.640625 -0.195313,0.820312 -0.3125,1.445312 -1.171875,0.117188 -3.203125,0.117188 h -2.695313 l -1.40625,7.1875 q 2.148438,-0.117188 3.59375,-0.15625 1.445313,-0.03906 1.875,-0.07813 -0.15625,1.132812 -0.3125,2.226562 -0.117187,1.054688 -0.3125,2.1875 -0.429687,0.03906 -1.328125,0.07813 -0.898437,0 -1.875,0.03906 -0.976562,0.03906 -2.1875,0.07813 l -1.367187,7.382812 5.820312,-0.9375 -0.390625,4.570313 z"
         id="path1071" />
    </g>
  </g>
</svg>
