<?xml version="1.0" encoding="UTF-8" standalone="no"?>
<svg
   xmlns:dc="http://purl.org/dc/elements/1.1/"
   xmlns:cc="http://creativecommons.org/ns#"
   xmlns:rdf="http://www.w3.org/1999/02/22-rdf-syntax-ns#"
   xmlns:svg="http://www.w3.org/2000/svg"
   xmlns="http://www.w3.org/2000/svg"
   xmlns:sodipodi="http://sodipodi.sourceforge.net/DTD/sodipodi-0.dtd"
   xmlns:inkscape="http://www.inkscape.org/namespaces/inkscape"
   width="100"
   height="100"
   viewBox="0 0 100 100"
   version="1.1"
   id="svg8"
   sodipodi:docname="for-hire.inline.svg"
   inkscape:version="1.0.1 (c497b03c, 2020-09-10)">
  <defs
     id="defs2">
    <rect
       x="53.672619"
       y="65.76786"
       width="111.125"
       height="61.988094"
       id="rect16" />
    <filter
       style="color-interpolation-filters:sRGB"
       inkscape:label="Drop Shadow"
       id="filter1116">
      <feFlood
         flood-opacity="1"
         flood-color="rgb(0,0,0)"
         result="flood"
         id="feFlood1106" />
      <feComposite
         in="flood"
         in2="SourceGraphic"
         operator="in"
         result="composite1"
         id="feComposite1108" />
      <feGaussianBlur
         in="composite1"
         stdDeviation="97.2973"
         result="blur"
         id="feGaussianBlur1110" />
      <feOffset
         dx="-43.1138"
         dy="-37.7246"
         result="offset"
         id="feOffset1112" />
      <feComposite
         in="SourceGraphic"
         in2="offset"
         operator="over"
         result="fbSourceGraphic"
         id="feComposite1114" />
      <feColorMatrix
         result="fbSourceGraphicAlpha"
         in="fbSourceGraphic"
         values="0 0 0 -1 0 0 0 0 -1 0 0 0 0 -1 0 0 0 0 1 0"
         id="feColorMatrix1466" />
      <feFlood
         id="feFlood1468"
         flood-opacity="0.611765"
         flood-color="rgb(0,0,0)"
         result="flood"
         in="fbSourceGraphic" />
      <feComposite
         in2="fbSourceGraphic"
         id="feComposite1470"
         in="flood"
         operator="in"
         result="composite1" />
      <feGaussianBlur
         id="feGaussianBlur1472"
         in="composite1"
         stdDeviation="0"
         result="blur" />
      <feOffset
         id="feOffset1474"
         dx="0.7"
         dy="0.7"
         result="offset" />
      <feComposite
         in2="offset"
         id="feComposite1476"
         in="fbSourceGraphic"
         operator="over"
         result="composite2" />
    </filter>
    <filter
       style="color-interpolation-filters:sRGB;"
       inkscape:label="Drop Shadow"
       id="filter1904">
      <feFlood
         flood-opacity="0.611765"
         flood-color="rgb(0,0,0)"
         result="flood"
         id="feFlood1894" />
      <feComposite
         in="flood"
         in2="SourceGraphic"
         operator="in"
         result="composite1"
         id="feComposite1896" />
      <feGaussianBlur
         in="composite1"
         stdDeviation="0"
         result="blur"
         id="feGaussianBlur1898" />
      <feOffset
         dx="2.8"
         dy="2"
         result="offset"
         id="feOffset1900" />
      <feComposite
         in="SourceGraphic"
         in2="offset"
         operator="over"
         result="composite2"
         id="feComposite1902" />
    </filter>
    <filter
       style="color-interpolation-filters:sRGB;"
       inkscape:label="Drop Shadow"
       id="filter1057">
      <feFlood
         flood-opacity="0.611765"
         flood-color="rgb(0,0,0)"
         result="flood"
         id="feFlood1047" />
      <feComposite
         in="flood"
         in2="SourceGraphic"
         operator="in"
         result="composite1"
         id="feComposite1049" />
      <feGaussianBlur
         in="composite1"
         stdDeviation="0"
         result="blur"
         id="feGaussianBlur1051" />
      <feOffset
         dx="2.8"
         dy="2"
         result="offset"
         id="feOffset1053" />
      <feComposite
         in="SourceGraphic"
         in2="offset"
         operator="over"
         result="composite2"
         id="feComposite1055" />
    </filter>
  </defs>
  <sodipodi:namedview
     id="base"
     pagecolor="#ffffff"
     bordercolor="#666666"
     borderopacity="1.0"
     inkscape:pageopacity="0.0"
     inkscape:pageshadow="2"
     inkscape:zoom="7.919596"
     inkscape:cx="35.092235"
     inkscape:cy="60.914903"
     inkscape:document-units="px"
     inkscape:current-layer="text873"
     inkscape:document-rotation="0"
     showgrid="false"
     units="px"
     inkscape:pagecheckerboard="true"
     inkscape:window-width="1252"
     inkscape:window-height="847"
     inkscape:window-x="1"
     inkscape:window-y="25"
     inkscape:window-maximized="0" />
  <metadata
     id="metadata5">
    <rdf:RDF>
      <cc:Work
         rdf:about="">
        <dc:format>image/svg+xml</dc:format>
        <dc:type
           rdf:resource="http://purl.org/dc/dcmitype/StillImage" />
        <dc:title />
      </cc:Work>
    </rdf:RDF>
  </metadata>
  <g
     inkscape:label="Layer 1"
     inkscape:groupmode="layer"
     id="layer1">
    <g
       aria-label="For Hire"
       id="text216"
       style="font-size:40px;line-height:1.25;font-family:Bangers;-inkscape-font-specification:Bangers;text-align:center;text-anchor:middle;fill:#2563eb;fill-opacity:1;filter:url(#filter1057)">
      <g
         aria-label="Hire
Alice"
         id="text873"
         style="font-size:40px;line-height:1.25;font-family:Bangers;-inkscape-font-specification:Bangers">
        <path
           d="M 3.5385545,41.727384 C 4.8461106,28.670991 8.1171821,19.793189 9.1848901,12.631732 L 18.38405,11.59477 c -1.041667,4.375001 -1.888021,8.307293 -2.539062,11.796876 l 3.945312,-0.46875 c 0.364583,-1.875 0.690104,-3.697917 0.976563,-5.46875 0.3125,-1.796875 0.703125,-3.632813 1.171875,-5.507813 1.041667,-0.182292 2.148437,-0.3125 3.320312,-0.390625 1.171875,-0.104167 1.979167,-0.169271 2.421875,-0.195313 l 2.810637,-0.267534 c -1.276042,4.166667 -2.273504,10.328695 -3.497462,17.854736 -0.598959,3.385417 -0.893296,8.742995 -1.388087,12.284661 l -9.027919,0.955662 c 0.338541,-1.588541 0.764289,-5.35878 1.024706,-6.76503 0.286459,-1.40625 0.559896,-2.799479 0.820313,-4.179688 0.286458,-1.380208 0.520833,-2.565104 0.703125,-3.554687 l -3.90625,0.351562 c -0.598959,3.307292 -2.288164,10.091688 -3.173581,14.544813 z"
           id="path877"
           sodipodi:nodetypes="ccccccccccccccccccc" />
        <path
           d="m 45.654331,11.653362 c -2.96875,15.104167 -4.778646,24.505208 -5.429687,28.203125 -0.729167,0 -1.992188,0.117187 -3.789063,0.351562 -1.796875,0.234375 -4.099262,0.769432 -4.099262,0.769432 0.833333,-3.020833 1.8541,-6.82018 2.557225,-10.387888 0.541296,-3.163414 2.065937,-14.558495 2.74302,-18.464745 z"
           id="path879"
           sodipodi:nodetypes="ccscccc" />
        <path
           d="M 62.18199,41.18368 C 60.176781,34.595138 59.955864,29.75883 59.877739,28.82133 l -0.507813,0.15625 c -0.208333,1.197917 -0.520833,2.864583 -0.9375,5 -0.416667,2.135417 -0.742187,3.841146 -0.976562,5.117188 l -8.441546,2.56357 c 2.708333,-13.098958 3.541231,-23.405985 4.140189,-28.900777 3.020833,-0.9375 9.184169,-1.279981 12.934169,-1.279981 2.8125,0 8.479167,0.976563 9,2.929688 0.15625,0.598958 0.234375,1.341145 0.234375,2.226562 0,0.885417 -0.182292,1.848958 -0.546875,2.890625 -0.364583,1.015625 -0.859375,1.992188 -1.484375,2.929688 -1.302083,1.901041 -5.70409,3.42251 -7.605131,4.438135 1.015625,2.1875 2.482273,4.51035 3.263523,6.463475 0.807292,1.927083 2.747066,5.322455 3.293941,6.65058 z m 1.211374,-24.159225 -1.71875,0.03906 -1.289063,6.367187 c 1.041667,-0.104167 2.356771,-0.768229 3.945313,-1.992187 1.640625,-1.25 2.460937,-2.278646 2.460937,-3.085938 0,-0.755208 -0.716146,-1.184895 -2.148437,-1.289062 -0.416667,-0.02604 -0.833333,-0.03906 -1.25,-0.03906 z"
           id="path881"
           sodipodi:nodetypes="cccscccscsccccccccccscc" />
        <path
           d="m 76.640205,40.891643 5.234375,-28.4375 14.65625,-1.09375 c -0.182292,0.598959 -0.338542,1.184896 -0.46875,1.757813 l -0.390625,1.640625 c -0.130208,0.546875 0.775777,2.859547 0.697653,3.276213 -0.78125,0.07813 -3.222887,-0.156434 -4.528951,-0.514157 l -4.632178,0.947018 -1.153712,5.040926 c 1.432292,-0.07813 4.630209,-0.130209 5.59375,-0.15625 0.963542,-0.02604 3.23004,-0.367756 3.516498,-0.393803 -0.104167,0.755208 0.04421,2.823221 -0.05996,3.552388 -0.07813,0.703125 0.113076,2.548408 -0.01713,3.303616 -0.286458,0.02604 -0.91857,-0.07419 -1.517529,-0.04814 -0.598958,0 -3.287093,-0.933998 -3.938135,-0.907958 -0.651041,0.02604 -3.380208,0.51433 -4.1875,0.540377 l -1.304052,5.867583 10.302864,-2.263325 -1.274509,9.368537 z"
           id="path883"
           sodipodi:nodetypes="ccccscsccsccccsccccc" />
        <path
           d="m 9.8629533,77.334836 -1.601562,5.742188 q -0.898438,0.117187 -2.109375,0.273437 -1.171875,0.15625 -2.3437504,0.3125 -1.171875,0.117188 -2.421875,0.273438 1.601562,-5.3125 2.695312,-8.984375 1.1328134,-3.671875 1.8359384,-6.015625 0.703125,-2.382813 1.367187,-4.6875 0.703125,-2.34375 1.328125,-4.492188 0.664063,-2.1875 1.171875,-3.984375 7.2265627,-0.507812 11.0156247,-1.25 -0.351562,3.867188 -0.585937,9.140625 -0.507813,10.507813 -0.859375,19.375 -1.171875,0.195313 -2.304688,0.351563 -1.09375,0.15625 -2.304687,0.351562 -1.171875,0.195313 -2.148438,0.351563 0.429688,-3.75 0.742188,-6.757813 z m 0.9374997,-3.984375 2.890625,-0.195312 q 0,-0.234375 0.03906,-0.78125 0.07813,-0.585938 0.15625,-1.328125 0.3125,-4.179688 0.664062,-7.773438 l 0.273438,-3.476562 -0.625,0.03906 z"
           id="path885" />
        <path
           d="m 31.479389,78.36999 q 1.484375,-0.117188 4.140625,-0.117188 0.07813,1.523438 0.234375,2.5 0.15625,0.9375 0.195312,1.40625 0.07813,0.429688 0.117188,0.585938 l -1.210938,-0.03906 q -4.101562,0 -8.164062,0.742188 -1.328125,0.273437 -2.421875,0.625 0.9375,-7.226563 2.460937,-15.195313 1.5625,-7.96875 2.65625,-13.398437 l 7.03125,-0.9375 q -3.632812,15.390625 -4.257812,18.90625 -0.585938,3.515625 -0.78125,4.921875 z"
           id="path887" />
        <path
           d="m 52.0802,54.834836 q -4.453125,22.65625 -5.429687,28.203125 -1.09375,0 -3.789063,0.351562 -2.695312,0.351563 -2.773437,0.390625 1.25,-4.53125 2.304687,-9.882812 2.421875,-12.226563 3.4375,-18.085938 z"
           id="path889" />
        <path
           d="m 63.110698,77.256711 q 0.976563,0 2.070313,-1.210938 1.09375,-1.25 1.40625,-2.578125 l 4.570312,1.835938 q -1.757812,4.101562 -4.609375,6.523437 -2.539062,2.148438 -5.195312,2.148438 -2.5,0 -4.0625,-2.265625 -1.640625,-2.421875 -1.640625,-6.367188 0,-3.945312 1.015625,-7.617187 1.054687,-3.671875 2.929687,-6.5625 1.875,-2.929688 4.453125,-4.726563 2.617188,-1.796875 5.703125,-1.796875 1.992188,0 3.398438,1.523438 1.367187,1.5625 1.367187,4.101562 v 0.507813 q 0,0.234375 -0.03906,0.507812 l -5.234375,1.40625 q -0.46875,-0.976562 -1.132813,-0.976562 -0.625,0 -1.328125,0.742187 -0.703125,0.742188 -1.40625,1.914063 -0.664062,1.171875 -1.289062,2.65625 -0.625,1.445312 -1.09375,2.929687 -1.09375,3.28125 -1.09375,5.3125 0,1.992188 1.210937,1.992188 z"
           id="path891" />
        <path
           d="m 78.086502,84.073117 5.234375,-28.4375 12.65625,-1.09375 q -0.273438,0.898438 -0.46875,1.757813 -0.195313,0.820312 -0.390625,1.640625 -0.195313,0.820312 -0.3125,1.445312 -1.171875,0.117188 -3.203125,0.117188 h -2.695313 l -1.40625,7.1875 q 2.148438,-0.117188 3.59375,-0.15625 1.445313,-0.03906 1.875,-0.07813 -0.15625,1.132812 -0.3125,2.226562 -0.117187,1.054688 -0.3125,2.1875 -0.429687,0.03906 -1.328125,0.07813 -0.898437,0 -1.875,0.03906 -0.976562,0.03906 -2.1875,0.07813 l -1.367187,7.382812 5.820312,-0.9375 -0.390625,4.570313 z"
           id="path893" />
      </g>
    </g>
  </g>
</svg>
